# xmcd
#
# Track frame offsets: 
#        150
#        29156
#        55058
#        73457
#        97052
#        119252
#        134735
#        158030
#        174886
#        203131
#        213850
#        239128
#        258988
#        275667
#
# Disc length: 3995 seconds
#
# Revision: 0
# Processed by: cddbd v1.5.2PL0 Copyright (c) Steve Scherf et al.
# Submitted via: ExactAudioCopy v0.95b3
#
DISCID=de0f990e
DTITLE=Saga  - The Definitive Collection [CD3]
DYEAR=1900
DGENRE=
TTITLE0=On The Air
TTITLE1=The Perfectionist
TTITLE2=Time's Up
TTITLE3=You And The Night
TTITLE4=Believe
TTITLE5=Not This Way (Chapter 10) (Abridged)
TTITLE6=Back To The Shadows
TTITLE7=The Flyer
TTITLE8=Humble Stance (Live)
TTITLE9=A Brief Case (Live)
TTITLE10=You're Not Alone (Live)
TTITLE11=How Long ? (Live)
TTITLE12=The Interview (Live)
TTITLE13=Careful Where You Step (Live)
EXTD=
EXTT0=
EXTT1=
EXTT2=
EXTT3=
EXTT4=
EXTT5=
EXTT6=
EXTT7=
EXTT8=
EXTT9=
EXTT10=
EXTT11=
EXTT12=
EXTT13=
PLAYORDER=
